<?xml version="1.0" standalone="no"?>
<!DOCTYPE svg PUBLIC "-//W3C//DTD SVG 20010904//EN"
 "http://www.w3.org/TR/2001/REC-SVG-20010904/DTD/svg10.dtd">
<svg version="1.0" xmlns="http://www.w3.org/2000/svg"
 width="512.000000pt" height="512.000000pt" viewBox="0 0 512.000000 512.000000"
 preserveAspectRatio="xMidYMid meet">

<g transform="translate(0.000000,512.000000) scale(0.100000,-0.100000)"
fill="#f9ab4f" stroke="none">
<path d="M363 4900 c-168 -25 -321 -172 -353 -339 -6 -34 -10 -445 -10 -1132
l0 -1079 215 0 215 0 0 369 c0 279 4 389 15 452 78 449 444 804 894 869 124
19 313 8 431 -25 357 -97 642 -377 744 -728 33 -112 46 -215 46 -350 l0 -112
490 490 490 490 452 -452 453 -453 -581 -582 c-372 -374 -591 -600 -608 -631
-22 -38 -55 -151 -56 -189 0 -11 1473 -9 1548 2 178 25 329 167 362 339 14 74
14 2648 0 2722 -33 172 -184 314 -362 339 -76 11 -4310 11 -4385 0z"/>
<path d="M1410 3620 c-137 -17 -257 -77 -361 -180 -83 -82 -120 -138 -156
-238 -107 -294 23 -634 296 -775 117 -61 163 -72 301 -72 102 0 138 4 195 22
192 61 356 224 416 413 26 82 35 226 20 316 -16 92 -85 233 -151 306 -100 112
-240 186 -395 208 -77 11 -85 11 -165 0z"/>
<path d="M2950 2614 c-568 -568 -587 -586 -665 -624 -145 -72 -124 -70 -851
-70 -550 0 -665 -2 -734 -16 -171 -32 -305 -101 -432 -222 -133 -127 -213
-270 -249 -447 -17 -80 -19 -141 -19 -557 l0 -468 1385 0 1385 0 0 633 c0 355
5 671 10 722 17 147 63 276 143 395 16 25 229 245 473 490 l444 445 -153 153
-152 152 -585 -586z"/>
</g>
</svg>
