<?xml version="1.0" standalone="no"?>
<!DOCTYPE svg PUBLIC "-//W3C//DTD SVG 20010904//EN"
 "http://www.w3.org/TR/2001/REC-SVG-20010904/DTD/svg10.dtd">
<svg version="1.0" xmlns="http://www.w3.org/2000/svg"
 width="512.000000pt" height="512.000000pt" viewBox="0 0 512.000000 512.000000"
 preserveAspectRatio="xMidYMid meet">

<g transform="translate(0.000000,512.000000) scale(0.100000,-0.100000)"
fill="#f9ab4f" stroke="none">
<path d="M1230 4901 c-42 -14 -84 -38 -107 -63 -44 -46 -53 -88 -53 -237 l0
-140 -42 -11 c-257 -65 -488 -226 -631 -442 -103 -155 -158 -308 -177 -496 -8
-73 -10 -463 -8 -1242 4 -1118 4 -1136 25 -1222 113 -458 477 -778 943 -829
62 -6 568 -9 1450 -6 1343 3 1356 3 1440 24 205 52 355 132 499 268 102 96
164 181 227 310 60 125 90 227 105 365 6 61 9 497 6 1235 -3 1047 -5 1146 -21
1214 -43 182 -121 338 -239 480 -129 156 -343 288 -554 341 l-43 11 0 140 c0
103 -4 149 -15 177 -71 169 -319 169 -390 0 -11 -27 -15 -73 -15 -168 l0 -130
-430 0 -430 0 0 130 c0 95 -4 141 -15 168 -71 169 -319 169 -390 0 -11 -27
-15 -73 -15 -168 l0 -130 -430 0 -430 0 0 130 c0 139 -10 182 -53 228 -47 51
-149 82 -207 63z m233 -1926 c127 -33 210 -121 237 -251 30 -142 -59 -302
-196 -353 -260 -98 -511 153 -413 413 35 95 131 176 232 196 62 12 78 11 140
-5z m1224 -15 c61 -27 137 -102 164 -163 35 -79 34 -192 -4 -269 -30 -62 -83
-115 -149 -150 -36 -19 -58 -23 -138 -23 -80 0 -102 4 -138 23 -66 35 -119 88
-149 150 -38 76 -40 191 -5 267 41 89 134 166 223 185 58 11 144 3 196 -20z
m1180 -5 c201 -91 246 -365 86 -516 -68 -65 -116 -84 -218 -84 -75 0 -98 4
-139 24 -194 96 -241 343 -97 505 90 99 242 129 368 71z m-2352 -1064 c131
-58 214 -211 186 -341 -17 -78 -36 -115 -86 -169 -64 -69 -128 -95 -230 -96
-68 0 -89 4 -137 28 -105 51 -168 146 -176 262 -5 85 8 138 51 201 88 131 249
178 392 115z m1180 -2 c63 -30 123 -90 155 -154 20 -41 25 -65 25 -135 -1 -77
-4 -91 -34 -148 -38 -70 -70 -101 -145 -140 -43 -22 -64 -26 -136 -26 -70 -1
-94 4 -135 24 -260 128 -238 495 35 594 63 23 170 16 235 -15z m1179 -3 c60
-29 113 -82 148 -148 19 -36 23 -58 23 -138 0 -80 -4 -102 -23 -138 -35 -66
-88 -119 -150 -149 -77 -38 -190 -39 -269 -4 -62 28 -136 103 -165 169 -29 65
-29 179 -1 244 25 54 94 133 137 155 97 51 208 54 300 9z"/>
</g>
</svg>
