<?xml version="1.0" standalone="no"?>
<!DOCTYPE svg PUBLIC "-//W3C//DTD SVG 20010904//EN"
 "http://www.w3.org/TR/2001/REC-SVG-20010904/DTD/svg10.dtd">
<svg version="1.0" xmlns="http://www.w3.org/2000/svg"
 width="512.000000pt" height="512.000000pt" viewBox="0 0 512.000000 512.000000"
 preserveAspectRatio="xMidYMid meet">

<g transform="translate(0.000000,512.000000) scale(0.100000,-0.100000)"
fill="#f9ab4f" stroke="none">
<path d="M2100 5109 c-292 -14 -627 -49 -865 -89 -270 -46 -513 -172 -724
-374 -188 -181 -325 -411 -390 -652 -14 -53 -46 -262 -66 -431 -63 -544 -71
-1246 -19 -1818 17 -192 58 -500 79 -590 56 -247 202 -496 398 -682 230 -218
467 -334 777 -382 626 -95 1425 -117 2090 -55 224 21 507 60 608 85 447 110
847 490 990 939 71 224 128 775 139 1350 9 526 -25 1054 -97 1475 -39 226
-125 417 -275 610 -193 247 -482 440 -760 505 -105 25 -395 65 -615 84 -376
34 -888 44 -1270 25z m556 -708 c22 -10 57 -35 77 -56 69 -71 67 -42 67 -894
l1 -766 474 -324 c261 -177 488 -338 505 -357 16 -19 37 -59 45 -89 50 -171
-104 -335 -278 -296 -32 7 -77 28 -109 50 -29 20 -273 187 -541 371 -279 190
-502 349 -521 371 -18 22 -38 56 -44 78 -9 28 -12 271 -12 883 0 939 -3 901
67 973 49 50 106 75 173 75 32 0 72 -8 96 -19z"/>
</g>
</svg>
